<svg xmlns="http://www.w3.org/2000/svg" width="27.988" height="28" viewBox="0 0 27.988 28">
  <g id="noun-diet-2475203" transform="translate(-114.886 -44.798)">
    <path id="Path_63" data-name="Path 63" d="M141.875,57.8h-3.162c-.737-5.157-3.924-8.395-9.246-6.209a10.73,10.73,0,0,1-1.438.5c.275-1.9.975-2.97,3.011-3.306a1,1,0,0,0-.326-1.973,5.546,5.546,0,0,0-3.045,1.416,4.856,4.856,0,0,0-4.729-3.428,4.727,4.727,0,0,0,3.184,6.493c-.057.286-.1.563-.129.828a9.8,9.8,0,0,1-1.483-.523c-7.795-3.272-10.6,5.435-9.338,10.82.707,3.021,2.6,8.361,7.336,10.185,1.644.633,3.175-.467,4.395-.467.757,0,2.228.664,3.311.664,1.436,0,4.353-1.508,6.413-5h5.245a1,1,0,0,0,1-1v-8a1,1,0,0,0-1-1Zm-21.436-4.862a4.65,4.65,0,0,1,3.3.507,7.5,7.5,0,0,0,3.169.8,8.324,8.324,0,0,0,3.32-.807,4.71,4.71,0,0,1,3.172-.5c1.913.453,2.929,2.708,3.3,4.856H117.056c.454-2.41,1.721-4.423,3.382-4.862Zm10.143,17.8a2.865,2.865,0,0,1-1.65-.215,5.5,5.5,0,0,0-4.052,0,2.891,2.891,0,0,1-1.65.214,8.063,8.063,0,0,1-3.618-2.942h14.629a8.342,8.342,0,0,1-3.659,2.942Zm10.294-4.942h-3v-1a1,1,0,0,0-2,0v1h-3v-3a1,1,0,0,0-2,0v3h-3v-1a1,1,0,1,0-2,0v1h-3v-3a1,1,0,1,0-2,0v3h-2.437a15.6,15.6,0,0,1-1.57-6h24Z" fill="#1da1f2"/>
  </g>
</svg>